<svg width="31" height="30" viewBox="0 0 31 30" fill="none" xmlns="http://www.w3.org/2000/svg">
<path d="M29.09 13.783H24.5914C23.828 13.783 23.2078 13.1738 23.2078 12.4208V4.85443C23.2078 4.10286 22.589 3.49229 21.8241 3.49229H17.9833C17.2198 3.49229 16.5996 2.88309 16.5996 2.13015V1.36214C16.5996 0.610569 15.9808 0 15.216 0C14.4511 0 13.8323 0.6092 13.8323 1.36214V9.45149C13.8323 10.2031 13.2135 10.8136 12.4487 10.8136H4.88936C4.12592 10.8136 3.50571 11.4242 3.50571 12.1758V12.4208C3.50571 13.1724 2.88689 13.783 2.12206 13.783H1.38365C0.620209 13.783 0 14.3922 0 15.1451C0 15.8981 0.618818 16.5073 1.38365 16.5073H7.73036C8.4938 16.5073 9.11401 17.1165 9.11401 17.8694V23.3358C9.11401 24.0873 9.73283 24.6979 10.4977 24.6979H12.4487C13.2121 24.6979 13.8323 25.3071 13.8323 26.0601V28.6379C13.8323 29.3894 14.4511 30 15.216 30C15.9808 30 16.5996 29.3908 16.5996 28.6379V17.8708C16.5996 17.1192 17.2184 16.5086 17.9833 16.5086H29.0886C29.8521 16.5086 30.4723 15.8994 30.4723 15.1465C30.4723 14.3935 29.8535 13.7843 29.0886 13.7843" fill="white"/>
</svg>
