<svg width="163" height="38" viewBox="0 0 163 38" fill="none" xmlns="http://www.w3.org/2000/svg">
<path d="M36.0889 17.222L30.6281 17.222C29.7014 17.222 28.9485 16.4706 28.9485 15.542L28.9485 6.21012C28.9485 5.28318 28.1974 4.53015 27.269 4.53015L22.6066 4.53015C21.6799 4.53015 20.9271 3.7788 20.9271 2.85017V1.90297C20.9271 0.976027 20.1759 0.222992 19.2475 0.222992C18.3191 0.222992 17.5679 0.974338 17.5679 1.90297L17.5679 11.8798C17.5679 12.8068 16.8167 13.5598 15.8883 13.5598H6.71219C5.78547 13.5598 5.03261 14.3128 5.03261 15.2398V15.542C5.03261 16.469 4.28144 17.222 3.35303 17.222H2.45668C1.52996 17.222 0.7771 17.9733 0.7771 18.902C0.7771 19.8306 1.52827 20.5819 2.45668 20.5819H10.1608C11.0876 20.5819 11.8404 21.3333 11.8404 22.2619L11.8404 29.0038C11.8404 29.9307 12.5916 30.6837 13.52 30.6837H15.8883C16.815 30.6837 17.5679 31.4351 17.5679 32.3637L17.5679 35.543C17.5679 36.47 18.3191 37.223 19.2475 37.223C20.1759 37.223 20.9271 36.4716 20.9271 35.543L20.9271 22.2636C20.9271 21.3367 21.6782 20.5836 22.6066 20.5836L36.0872 20.5836C37.0139 20.5836 37.7668 19.8323 37.7668 18.9037C37.7668 17.975 37.0156 17.2237 36.0872 17.2237" fill="#0037FF"/>
<path d="M50.1684 27.4057H53.8331C59.3108 27.4057 63.2709 23.5291 63.2709 18.1768C63.2709 12.8245 59.3108 8.9479 53.8331 8.9479L50.1684 8.9479V27.4057ZM46.2927 31.029L46.2927 5.32455L53.8331 5.32455C61.544 5.32455 67.1466 10.8035 67.1466 18.1768C67.1466 25.5501 61.544 31.029 53.8331 31.029H46.2927Z" fill="white"/>
<path d="M73.0841 19.0207H85.849C85.427 15.313 82.9422 12.6993 79.6134 12.6993C76.2846 12.6993 73.631 15.1863 73.0841 19.0207ZM89.2199 22.0126L73.1263 22.0126C73.6732 25.847 76.2019 28.1652 79.6978 28.1652C82.2265 28.1652 83.8689 27.0272 84.9222 25.3422L88.6713 25.3422C87.407 28.5451 84.0377 31.4948 79.6556 31.4948C73.9264 31.4948 69.4177 26.8601 69.4177 20.412C69.4177 13.9639 74.0514 9.37143 79.6134 9.37143C85.1754 9.37143 89.3871 13.9639 89.3871 19.9072C89.3871 20.7919 89.3449 21.5078 89.2183 22.0143" fill="white"/>
<path d="M91.6599 20.412C91.6599 14.1328 96.2935 9.37143 101.898 9.37143C106.953 9.37143 110.576 13.3325 111.376 17.5045L107.754 17.5045C107.038 15.0192 105.142 12.7854 101.898 12.7854C98.3158 12.7854 95.2841 15.8617 95.2841 20.4137C95.2841 24.9657 98.3175 28.0825 101.898 28.0825C105.142 28.0825 107.038 25.8487 107.754 23.3634L111.376 23.3634C110.576 27.5354 106.952 31.4965 101.898 31.4965C96.2952 31.4965 91.6599 26.7351 91.6599 20.4137" fill="white"/>
<path d="M129.83 20.412C129.83 15.86 126.881 12.7837 123.426 12.7837C119.97 12.7837 117.065 15.86 117.065 20.412C117.065 24.964 120.014 28.0808 123.426 28.0808C126.837 28.0808 129.83 25.0045 129.83 20.412ZM113.441 20.412C113.441 13.9217 117.908 9.37143 123.215 9.37143C126.67 9.37143 129.113 11.6474 129.744 12.4899H129.955L130.755 9.83574H133.451V31.0322H130.755L129.955 28.3763H129.744C129.113 29.2188 126.669 31.4948 123.215 31.4948C117.906 31.4948 113.441 26.9023 113.441 20.412Z" fill="white"/>
<path d="M137.496 31.0322V9.83574H140.192L140.992 12.4899H141.203C141.961 11.3519 144.025 9.37143 146.68 9.37143C147.312 9.37143 147.86 9.41364 148.323 9.54027V13.2058C147.776 13.037 147.27 12.9948 146.68 12.9948C143.436 12.9948 141.12 15.2708 141.12 19.1052V31.0305H137.498L137.496 31.0322Z" fill="white"/>
<path d="M153.798 24.4144V13.1628H150.176V9.95984H151.776C153.418 9.95984 154.345 9.07511 154.345 7.43059V4.26987H157.421V9.83321L162.223 9.83321V13.1628H157.421V24.2878C157.421 26.8997 158.769 28.0799 160.749 28.0799C161.296 28.0799 161.76 27.9955 162.223 27.7845V31.114C161.718 31.2829 161.043 31.4939 160.032 31.4939C156.494 31.4939 153.796 28.9242 153.796 24.4144" fill="white"/>
</svg>
